<?xml version="1.0" encoding="UTF-8" standalone="no"?>
<svg
   xmlns:dc="http://purl.org/dc/elements/1.1/"
   xmlns:cc="http://creativecommons.org/ns#"
   xmlns:rdf="http://www.w3.org/1999/02/22-rdf-syntax-ns#"
   xmlns:svg="http://www.w3.org/2000/svg"
   xmlns="http://www.w3.org/2000/svg"
   viewBox="0 0 518.66669 148"
   height="148"
   width="518.66669"
   xml:space="preserve"
   id="svg2"
   version="1.1"><metadata
     id="metadata8"><rdf:RDF><cc:Work
         rdf:about=""><dc:format>image/svg+xml</dc:format><dc:type
           rdf:resource="http://purl.org/dc/dcmitype/StillImage" /></cc:Work></rdf:RDF></metadata><defs
     id="defs6" /><g
     transform="matrix(1.3333333,0,0,-1.3333333,0,148)"
     id="g10"><g
       transform="scale(0.1)"
       id="g12"><path
         id="path14"
         style="fill:#308f3f;fill-opacity:1;fill-rule:evenodd;stroke:none"
         d="m 782.5,466.988 c -6.988,-3.668 -14.691,-5.508 -23.012,-5.508 -11.988,0.36 -23.316,4.032 -33.976,11.02 -10.672,6.641 -19.032,15.98 -25,28.012 -4.34,8.629 -7.032,17.648 -8.012,26.988 -0.66,8.98 0.66,17.66 3.98,25.98 5.668,14.68 15.668,24.84 30,30.5 6.68,2.661 13.829,4.032 21.532,4.032 13.629,0 25.968,-3.672 36.988,-11.024 10.98,-6.988 19.141,-16.679 24.488,-28.976 6.332,-16.371 6.992,-32.032 1.992,-47.032 -5,-15.32 -14.64,-26.64 -28.98,-33.992 m 1.48,-158.508 c -7.652,-3.992 -15.5,-5.98 -23.468,-5.98 -10,0 -18.871,2.66 -26.532,8.012 -8,5.308 -13.98,12.5 -18,21.476 -5.671,14.34 -5.82,28.524 -0.468,42.5 5.308,13.992 14.797,24.34 28.468,31.024 7.348,3.629 14.692,5.468 22,5.468 10.348,-0.32 19.329,-3.171 27.032,-8.48 7.968,-5.66 13.828,-13.16 17.5,-22.5 4.648,-14.02 4.488,-27.66 -0.512,-41.02 -5,-13.32 -13.672,-23.468 -26.02,-30.5 m -45.5,-117 c -8.992,-5 -17.968,-7.5 -27,-7.5 -13.32,0 -22.808,5 -28.468,15 -4.34,9.032 -4.184,18.829 0.468,29.5 4.329,10.348 12.032,18.86 23,25.5 8.36,4.692 16.68,7 25,7 14.032,-0.32 23.829,-5.82 29.5,-16.492 4.329,-8.976 4.329,-18.508 0,-28.508 -3.992,-10 -11.492,-18.171 -22.5,-24.5 M 665,101.988 C 657.34,98.9805 650.16,97.5 643.48,97.5 c -12.308,0 -20.16,4.141 -23.48,12.5 -1.988,7.34 -0.16,14.84 5.512,22.5 5.66,7.66 13.828,13.828 24.488,18.48 7.66,3 15.16,4.532 22.5,4.532 13.672,-0.352 21.988,-4.852 25,-13.524 C 699.488,135 697.34,127.66 690.98,120 685,112.66 676.328,106.641 665,101.988 M 582.5,660 c -4.691,10 -7.34,20 -8.012,30 -0.66,10.309 0.821,20 4.492,28.98 6.329,15.36 17.348,25.668 33.008,31.02 6.684,2.34 13.832,3.48 21.492,3.48 16.008,0 31.168,-4.339 45.5,-12.968 14.032,-8.672 25,-20.203 33.008,-34.532 4.653,-8.992 7.352,-18.171 8.012,-27.5 0.98,-9.339 -0.16,-18.32 -3.52,-27 -6.32,-16.32 -17.808,-27.808 -34.492,-34.492 -7.648,-3.008 -15.816,-4.488 -24.488,-4.488 -15.66,0.309 -30.16,4.648 -43.52,13.012 -13.32,8.629 -23.82,20.148 -31.48,34.488 m -39.488,121.48 c -13.012,0.36 -24.532,4.18 -34.532,11.532 -10,7.297 -17.152,17.297 -21.492,30 -4.648,16.328 -4.179,31.476 1.492,45.468 5.661,14.02 15.348,23.668 29.02,29.02 5,1.641 10.309,2.5 15.98,2.5 12.032,0 23.161,-3.672 33.508,-11.02 10.352,-6.992 18.321,-16.48 23.992,-28.468 7.032,-16.024 7.5,-31.532 1.52,-46.532 C 586.48,800 576.328,790.309 561.988,785 c -6.328,-2.34 -12.648,-3.52 -18.976,-3.52 m -3.524,231.53 c 3.672,0.97 7.352,1.48 11.024,1.48 8.629,0 16.476,-2.65 23.468,-8.01 6.68,-5.31 11.532,-12.339 14.5,-20.968 3,-11.371 1.68,-22.032 -3.992,-32.032 -5.347,-10 -13.828,-17 -25.508,-20.98 -4.332,-1.328 -8.671,-1.988 -13,-1.988 -8.992,0 -16.839,2.808 -23.48,8.468 -6.328,5.36 -10.512,12.661 -12.5,22 -1.68,11.68 0.16,22.34 5.512,32.032 5.66,9.648 13.629,16.328 23.976,19.998 m 66.492,65 c 2.34,0.31 4.532,0.47 6.52,0.47 6.328,0 11.84,-1.64 16.48,-5 4.34,-2.97 7.192,-7.15 8.52,-12.5 1.328,-6.33 -0.352,-12.31 -5,-17.97 -4.34,-5.35 -10.66,-9.03 -19.02,-11.02 -2.968,-0.66 -5.671,-1.01 -7.968,-1.01 -6.684,0 -12.352,1.68 -17.032,5 -4.339,3.36 -6.839,7.69 -7.5,13 -0.671,6.68 1.36,12.66 6.008,18.01 4.653,5.35 11.024,8.99 18.992,11.02 M 611.48,68.9805 C 608.16,62.3398 601.641,57.5 591.988,54.4883 c -3.316,-1.0078 -6.828,-1.4766 -10.508,-1.4766 -9.64,0 -16.48,3.3203 -20.5,10 -2,2.9688 -2.308,6.3281 -0.98,10 2.66,5.6602 8.48,9.7969 17.5,12.5 3.98,0.9688 8.16,1.4766 12.5,1.4766 5.66,0 10.512,-0.8164 14.488,-2.5 3.992,-1.9883 6.492,-4.4883 7.5,-7.5 1.024,-2.6485 0.821,-5.3477 -0.508,-8.0078 M 553.48,1110 c -2.308,0 -4.652,0 -7,0 C 502.809,1070.98 472.5,1033.32 455.512,996.988 438.48,960.66 431.328,925 433.98,890 c 2.661,-35 11.68,-69.691 27,-104.02 15.348,-34.652 33.508,-69.808 54.532,-105.468 20.66,-35.672 40.816,-72.352 60.468,-110 19.329,-37.703 34.68,-77.192 46.008,-118.524 11.024,-41.008 14.34,-84.328 10,-130 C 627.66,276.328 611.988,227.66 585,175.98 558.32,124.648 516.84,69.6484 460.512,10.9805 490.512,5.98047 521.48,3.32031 553.48,3.01172 630.512,3.67188 702.34,18.1602 768.98,46.4805 835.66,75.1602 894.141,114.648 944.488,165 c 50.672,50.66 90.352,109.34 118.992,175.98 28.36,66.68 42.85,138.508 43.51,215.5 -0.66,77 -15.15,148.829 -43.51,215.508 -28.64,66.684 -68.32,125.352 -118.992,176.024 -50.347,50.66 -108.828,90.148 -175.508,118.468 -66.992,28.68 -138.82,43.17 -215.5,43.52" /><path
         id="path16"
         style="fill:#2ed973;fill-opacity:1;fill-rule:evenodd;stroke:none"
         d="m 508.98,1108.01 c -71.64,-6.02 -138.16,-24.34 -199.492,-55 C 247.809,1022.66 193.828,982.66 147.5,933.012 101.48,883.012 65.5117,825.98 39.4883,761.988 13.4805,698.012 0.308594,629.488 0,556.48 0.308594,492.809 10.3086,432.66 30,375.98 50,318.98 78.0117,266.988 113.98,220 150,173.012 192.5,132.809 241.48,99.4883 290.16,65.8203 343.672,40.6602 401.988,23.9805 450.66,79.3398 486.84,131.988 510.512,181.988 c 23.316,50 36.988,97.5 40.968,142.5 4.34,45.352 2,88.832 -6.992,130.512 -8.976,41.328 -21.476,81.172 -37.5,119.488 -16.008,38.672 -32.5,76.172 -49.488,112.5 -16.68,36.332 -30.859,71.992 -42.5,106.992 -11.68,35 -17.66,69.692 -18.012,104.032 -0.347,34.328 8.172,68.976 25.512,103.978 16.988,34.65 45.82,70 86.48,106.02" /><path
         id="path18"
         style="fill:#2ed973;fill-opacity:1;fill-rule:evenodd;stroke:none"
         d="m 520.512,386.48 c 10.66,0 21.476,0.161 32.5,0.508 -2.352,40.352 -9.34,79.34 -21.024,116.992 -11.679,37.348 -25.347,73.68 -41.008,109.032 -15.98,35 -31.492,69.328 -46.492,102.968 -14.648,33.36 -26.679,66.36 -36.008,99.02 -8.992,32.34 -12.66,64.648 -10.98,96.988 1.641,31.992 11.172,64.34 28.48,96.992 17.34,32.35 45,65.36 83,99.03 -71.32,-6.02 -137.5,-24.18 -198.468,-54.53 -61.371,-30 -115,-69.652 -161.024,-118.992 C 103.16,885.16 66.9883,828.828 40.9805,765.512 14.6484,702.148 0.980469,634.34 0,561.988 45,525.66 94.8398,494.34 149.488,468.012 204.141,441.988 262.66,421.84 325,407.5 387.66,393.48 452.809,386.48 520.512,386.48" /><path
         id="path20"
         style="fill:#308f3f;fill-opacity:1;fill-rule:evenodd;stroke:none"
         d="m 782.5,466.988 c -6.988,-3.668 -14.691,-5.508 -23.012,-5.508 -11.988,0.36 -23.316,4.032 -33.976,11.02 -10.672,6.641 -19.032,15.98 -25,28.012 -4.34,8.629 -7.032,17.648 -8.012,26.988 -0.66,8.98 0.66,17.66 3.98,25.98 5.668,14.68 15.668,24.84 30,30.5 6.68,2.661 13.829,4.032 21.532,4.032 13.629,0 25.968,-3.672 36.988,-11.024 10.98,-6.988 19.141,-16.679 24.488,-28.976 6.332,-16.371 6.992,-32.032 1.992,-47.032 -5,-15.32 -14.64,-26.64 -28.98,-33.992 M 657.5,612.5 c -15.66,0.309 -30.16,4.648 -43.52,13.012 -13.32,8.629 -23.82,20.148 -31.48,34.488 -4.691,10 -7.34,20 -8.012,30 -0.66,10.309 0.821,20 4.492,28.98 6.329,15.36 17.348,25.668 33.008,31.02 6.684,2.34 13.832,3.48 21.492,3.48 16.008,0 31.168,-4.339 45.5,-12.968 14.032,-8.672 25,-20.203 33.008,-34.532 4.653,-8.992 7.352,-18.171 8.012,-27.5 0.98,-9.339 -0.16,-18.32 -3.52,-27 -6.32,-16.32 -17.808,-27.808 -34.492,-34.492 C 674.34,613.98 666.172,612.5 657.5,612.5 M 543.012,781.48 c -13.012,0.36 -24.532,4.18 -34.532,11.532 -10,7.297 -17.152,17.297 -21.492,30 -4.648,16.328 -4.179,31.476 1.492,45.468 5.661,14.02 15.348,23.668 29.02,29.02 5,1.641 10.309,2.5 15.98,2.5 12.032,0 23.161,-3.672 33.508,-11.02 10.352,-6.992 18.321,-16.48 23.992,-28.468 7.032,-16.024 7.5,-31.532 1.52,-46.532 C 586.48,800 576.328,790.309 561.988,785 c -6.328,-2.34 -12.648,-3.52 -18.976,-3.52 m -3.524,231.53 c 3.672,0.97 7.352,1.48 11.024,1.48 8.629,0 16.476,-2.65 23.468,-8.01 6.68,-5.31 11.532,-12.339 14.5,-20.968 3,-11.371 1.68,-22.032 -3.992,-32.032 -5.347,-10 -13.828,-17 -25.508,-20.98 -4.332,-1.328 -8.671,-1.988 -13,-1.988 -8.992,0 -16.839,2.808 -23.48,8.468 -6.328,5.36 -10.512,12.661 -12.5,22 -1.68,11.68 0.16,22.34 5.512,32.032 5.66,9.648 13.629,16.328 23.976,19.998 m 66.492,65 c 2.34,0.31 4.532,0.47 6.52,0.47 6.328,0 11.84,-1.64 16.48,-5 4.34,-2.97 7.192,-7.15 8.52,-12.5 1.328,-6.33 -0.352,-12.31 -5,-17.97 -4.34,-5.35 -10.66,-9.03 -19.02,-11.02 -2.968,-0.66 -5.671,-1.01 -7.968,-1.01 -6.684,0 -12.352,1.68 -17.032,5 -4.339,3.36 -6.839,7.69 -7.5,13 -0.671,6.68 1.36,12.66 6.008,18.01 4.653,5.35 11.024,8.99 18.992,11.02 m 497.03,-459.03 c -8.01,69.34 -27.7,133.829 -59.03,193.52 -30.97,59.34 -71.171,111.172 -120.5,155.512 -49.652,44.648 -105.82,79.328 -168.48,103.978 -63.012,25 -130.16,37.66 -201.52,38.01 -2.308,0 -4.652,0 -7,0 -40.308,-36.02 -69.332,-70.86 -86.992,-104.49 -17.34,-34.03 -26.008,-67.19 -26.008,-99.53 0,-32.308 6.008,-64.5 18,-96.492 12,-31.988 27.192,-64.179 45.508,-96.476 18.321,-32.703 37.153,-65.864 56.492,-99.532 19.02,-33.992 35.86,-69.339 50.5,-105.98 14.692,-36.328 24.18,-74.34 28.52,-114.02 95.66,12.34 183.48,38 263.48,77.032 80.348,38.976 149.33,88.468 207.03,148.468" /><path
         id="path22"
         style="fill:#30da74;fill-opacity:1;fill-rule:nonzero;stroke:none"
         d="m 1632.77,810.59 c 0,-14.5 -1.83,-27.469 -5.47,-38.91 -3.55,-11.371 -8.39,-21.41 -14.53,-30.16 -6.05,-8.668 -13.08,-16.09 -21.09,-22.34 -7.93,-6.168 -16.25,-11.211 -25,-15.16 -8.67,-3.86 -17.46,-6.68 -26.41,-8.43 -8.86,-1.801 -17.18,-2.66 -25,-2.66 h -143.59 v 63.441 h 143.59 c 8.13,0.699 15.47,2.379 22.03,5 6.65,2.688 12.35,6.328 17.04,10.93 4.76,4.578 8.47,10.039 11.09,16.41 2.58,6.449 3.91,13.75 3.91,21.879 v 28.898 c -0.86,7.891 -2.58,15.203 -5.16,21.883 -2.62,6.641 -6.17,12.34 -10.63,17.027 -4.49,4.762 -9.92,8.481 -16.25,11.09 -6.36,2.703 -13.71,4.063 -22.03,4.063 H 1372.3 c -8.55,0 -15,-2.18 -19.37,-6.563 -4.38,-4.367 -6.56,-10.738 -6.56,-19.058 V 606.988 h -63.44 V 867.93 c 0,16.332 2.97,30.191 8.91,41.558 5.93,11.332 13.32,20.512 22.18,27.5 8.83,7.071 18.48,12.192 28.91,15.313 10.39,3.211 20,4.847 28.75,4.847 h 143.59 c 14.38,0 27.23,-1.878 38.6,-5.628 11.33,-3.668 21.4,-8.551 30.15,-14.68 8.75,-6.059 16.14,-13.09 22.19,-21.102 6.13,-7.929 11.17,-16.25 15.16,-25 3.94,-8.668 6.79,-17.418 8.59,-26.25 1.88,-8.867 2.81,-17.187 2.81,-25 z m 311.92,-116.25 c 0,-8.75 -1.57,-18.25 -4.69,-28.442 -3.05,-10.117 -8.05,-19.527 -15,-28.277 -6.88,-8.672 -15.9,-15.941 -27.03,-21.883 -11.17,-5.859 -24.69,-8.75 -40.63,-8.75 h -114.53 c -8.75,0 -18.24,1.492 -28.43,4.532 -10.12,3.128 -19.54,8.128 -28.29,15 -8.75,6.96 -16.05,16.019 -21.87,27.191 -5.86,11.129 -8.75,24.687 -8.75,40.629 0,8.82 1.48,18.359 4.53,28.59 3.12,10.308 8.12,19.769 15,28.441 6.95,8.75 16.02,16.008 27.19,21.867 11.13,5.821 24.69,8.75 40.62,8.75 h 114.53 V 721.52 h -114.53 c -8.67,0 -15.31,-2.649 -20,-7.969 -4.69,-5.313 -7.03,-11.871 -7.03,-19.68 0,-8.25 2.7,-14.691 8.13,-19.383 5.39,-4.609 11.87,-6.867 19.37,-6.867 h 114.06 c 8.64,0 15.32,2.578 20,7.809 4.69,5.191 7.04,11.718 7.04,19.531 v 88.59 c 0,8.211 -2.58,14.769 -7.66,19.687 -5.12,4.883 -11.56,7.352 -19.38,7.352 h -139.37 v 60.308 h 139.37 c 8.75,0 18.21,-1.558 28.44,-4.687 10.2,-3.051 19.61,-8.051 28.28,-15 8.75,-6.871 16.02,-15.902 21.88,-27.031 5.82,-11.168 8.75,-24.692 8.75,-40.629 z" /><path
         id="path24"
         style="fill:#30da74;fill-opacity:1;fill-rule:nonzero;stroke:none"
         d="m 2289.02,696.051 c 0,-10.852 -1.4,-20.621 -4.22,-29.371 -2.73,-8.75 -6.36,-16.41 -10.93,-22.969 -4.61,-6.563 -9.92,-12.191 -15.94,-16.871 -5.94,-4.61 -12.27,-8.36 -18.91,-11.25 -6.56,-2.93 -13.24,-5.121 -20,-6.57 -6.79,-1.36 -13.2,-2.032 -19.22,-2.032 h -114.37 c -10.94,0 -20.74,1.332 -29.38,4.063 -8.67,2.82 -16.25,6.488 -22.81,11.097 -6.56,4.692 -12.19,10.043 -16.87,16.09 -4.61,6.024 -8.4,12.352 -11.41,18.91 -2.93,6.563 -5.08,13.204 -6.41,20 -1.36,6.762 -2.03,13.051 -2.03,18.903 v 85.937 c 0,16.332 2.97,30.16 8.91,41.41 5.94,11.332 13.32,20.551 22.19,27.653 8.83,7.07 18.47,12.109 28.9,15.16 10.39,3.129 20.04,4.687 28.91,4.687 h 114.37 v -63.437 h -113.9 c -8.44,0 -14.92,-2.191 -19.38,-6.563 -4.37,-4.296 -6.56,-10.589 -6.56,-18.91 V 696.52 c 0,-8.551 2.11,-15.071 6.41,-19.532 4.37,-4.367 10.7,-6.558 19.06,-6.558 h 114.37 c 8.64,0 15.08,2.191 19.38,6.558 4.26,4.461 6.41,10.821 6.41,19.063 v 286.41 h 63.43 z" /><path
         id="path26"
         style="fill:#30da74;fill-opacity:1;fill-rule:nonzero;stroke:none"
         d="m 2633.98,783.551 c 0,-8.86 -1.56,-18.391 -4.68,-28.59 -3.13,-10.121 -8.13,-19.531 -15,-28.281 -6.88,-8.668 -15.9,-15.942 -27.03,-21.879 -11.18,-5.852 -24.77,-8.75 -40.79,-8.75 h -114.37 v 60.32 h 114.37 c 8.64,0 15.32,2.649 20,7.969 4.77,5.308 7.19,11.871 7.19,19.68 0,8.32 -2.65,14.851 -7.97,19.531 -5.31,4.687 -11.72,7.039 -19.22,7.039 h -114.37 c -8.67,0 -15.39,-2.66 -20.16,-7.969 -4.68,-5.242 -7.03,-11.723 -7.03,-19.531 v -88.75 c 0,-8.442 2.66,-15 7.97,-19.692 5.31,-4.687 11.88,-7.027 19.69,-7.027 h 113.9 v -60.633 h -114.37 c -8.87,0 -18.4,1.492 -28.59,4.532 -10.12,3.128 -19.54,8.128 -28.29,15 -8.67,6.96 -15.93,16.019 -21.87,27.191 -5.86,11.129 -8.75,24.687 -8.75,40.629 v 89.211 c 0,8.75 1.56,18.168 4.69,28.289 3.12,10.191 8.12,19.68 15,28.43 6.87,8.75 15.86,16.019 27.03,21.878 11.25,5.821 24.84,8.75 40.78,8.75 h 114.37 c 8.83,0 18.32,-1.558 28.44,-4.687 10.2,-3.051 19.61,-8.051 28.28,-15 8.75,-6.871 16.02,-15.902 21.88,-27.031 5.94,-11.168 8.9,-24.692 8.9,-40.629 z" /><path
         id="path28"
         style="fill:#30da74;fill-opacity:1;fill-rule:nonzero;stroke:none"
         d="m 2793.16,606.988 h -28.28 c -9.18,0 -18.9,1.492 -29.22,4.532 -10.31,3.128 -19.96,8.21 -28.9,15.32 -8.99,7.07 -16.41,16.281 -22.35,27.648 -5.86,11.332 -8.75,25.203 -8.75,41.563 v 286.41 h 63.6 v -286.41 c 0,-7.813 2.38,-14.063 7.19,-18.75 4.88,-4.602 11.01,-6.871 18.43,-6.871 h 28.28 z" /><path
         id="path30"
         style="fill:#30da74;fill-opacity:1;fill-rule:nonzero;stroke:none"
         d="m 3130.08,696.051 c 0,-16.36 -2.97,-30.231 -8.91,-41.563 -5.94,-11.367 -13.4,-20.578 -22.34,-27.648 -8.87,-7.11 -18.52,-12.192 -28.91,-15.32 -10.43,-3.04 -20.08,-4.532 -28.9,-4.532 h -203.75 v 63.442 h 203.75 c 8.51,0 14.88,2.191 19.06,6.558 4.14,4.461 6.25,10.821 6.25,19.063 v 54.07 h -229.06 v 63.899 h 229.06 v 53.441 c 0,17.379 -8.44,26.09 -25.31,26.09 h -203.75 v 63.597 h 203.75 c 10.82,0 20.54,-1.41 29.21,-4.218 8.64,-2.731 16.25,-6.41 22.82,-11.09 6.56,-4.692 12.18,-10.078 16.87,-16.102 4.77,-5.937 8.63,-12.258 11.56,-18.898 2.9,-6.57 5.04,-13.25 6.41,-20 1.45,-6.68 2.19,-12.969 2.19,-18.91 z" /><path
         id="path32"
         style="fill:#30da74;fill-opacity:1;fill-rule:nonzero;stroke:none"
         d="m 3257.27,814.02 h 168.9 c 8.95,0 18.6,-1.641 28.91,-4.84 10.39,-3.129 20.04,-8.239 28.9,-15.309 8.95,-7.109 16.41,-16.371 22.35,-27.82 5.94,-11.36 8.9,-25.231 8.9,-41.563 v -28.437 c 0,-5.93 -0.7,-12.301 -2.03,-19.063 -1.36,-6.679 -3.55,-13.277 -6.56,-19.84 -3.05,-6.558 -6.87,-12.886 -11.56,-18.91 -4.61,-6.047 -10.24,-11.398 -16.88,-16.09 -6.56,-4.609 -14.18,-8.277 -22.81,-11.097 -8.55,-2.731 -18.28,-4.063 -29.22,-4.063 h -115 c -7.81,0 -16.17,0.864 -25,2.66 -8.87,1.762 -17.62,4.614 -26.25,8.59 -8.67,4.063 -16.99,9.102 -25,15.16 -8.04,6.133 -15.08,13.512 -21.09,22.192 -6.06,8.75 -10.9,18.789 -14.53,30.148 -3.68,11.453 -5.47,24.383 -5.47,38.75 v 115 c 0,14.262 1.79,27.071 5.47,38.442 3.63,11.449 8.47,21.48 14.53,30.16 6.01,8.75 13.05,16.172 21.09,22.34 8.01,6.25 16.33,11.332 25,15.308 8.63,3.953 17.38,6.801 26.25,8.602 8.83,1.871 17.19,2.808 25,2.808 h 159.22 v -63.597 h -159.22 c -8.12,-0.621 -15.47,-2.34 -22.03,-5.153 -6.56,-2.738 -12.26,-6.367 -17.03,-10.937 -4.69,-4.492 -8.36,-9.961 -10.94,-16.41 -2.62,-6.481 -3.9,-13.672 -3.9,-21.563 z m 0,-63.899 v -25.633 c 0,-8.359 1.4,-15.859 4.21,-22.5 2.9,-6.558 6.76,-12.187 11.57,-16.867 4.88,-4.691 10.62,-8.359 17.18,-10.941 6.65,-2.5 13.79,-3.75 21.41,-3.75 h 114.53 c 8.13,0 14.3,2.422 18.6,7.34 4.37,4.89 6.56,10.98 6.56,18.281 v 28.437 c 0,8.211 -2.15,14.532 -6.41,18.91 -4.18,4.454 -10.58,6.723 -19.22,6.723 z" /><path
         id="path34"
         style="fill:#30da74;fill-opacity:1;fill-rule:nonzero;stroke:none"
         d="m 3888.87,696.051 c 0,-5.93 -0.75,-12.301 -2.19,-19.063 -1.37,-6.679 -3.56,-13.277 -6.56,-19.84 -3.05,-6.558 -6.88,-12.886 -11.57,-18.91 -4.6,-6.047 -10.15,-11.398 -16.71,-16.09 -6.57,-4.609 -14.18,-8.277 -22.82,-11.097 -8.67,-2.731 -18.36,-4.063 -29.06,-4.063 H 3567.3 v 63.442 h 232.66 c 8.01,0 14.14,2.422 18.44,7.34 4.26,4.89 6.4,10.98 6.4,18.281 v 28.437 c 0,8.211 -2.14,14.532 -6.4,18.91 -4.18,4.454 -10.47,6.723 -18.91,6.723 h -143.12 c -16.37,0 -30.24,2.969 -41.57,8.899 -11.36,5.941 -20.54,13.359 -27.5,22.351 -6.99,8.938 -12.1,18.629 -15.31,29.059 -3.12,10.39 -4.69,20.082 -4.69,29.058 v 117.66 h 292.5 v -63.597 h -229.06 v -54.063 c 0,-8.547 2.19,-14.957 6.56,-19.218 4.46,-4.18 10.82,-6.25 19.07,-6.25 h 143.59 c 8.75,0 18.32,-1.641 28.75,-4.84 10.39,-3.129 20.04,-8.239 28.91,-15.309 8.94,-7.109 16.4,-16.371 22.34,-27.82 5.94,-11.36 8.91,-25.231 8.91,-41.563 z" /><path
         id="path36"
         style="fill:#318f41;fill-opacity:1;fill-rule:nonzero;stroke:none"
         d="m 1343.4,362.93 h 124.84 v 80.16 h 35.63 V 246.988 h -35.63 v 80.16 H 1343.4 v -80.16 h -35.47 V 443.09 h 35.47 z m 357.89,-66.09 c 0,-6.059 -0.78,-11.531 -2.34,-16.41 -1.57,-4.918 -3.68,-9.219 -6.25,-12.969 -2.5,-3.672 -5.47,-6.801 -8.91,-9.371 -3.36,-2.621 -6.88,-4.77 -10.63,-6.41 -3.67,-1.559 -7.34,-2.77 -11.09,-3.59 -3.75,-0.75 -7.34,-1.102 -10.78,-1.102 h -64.06 c -4.93,0 -10.28,0.821 -16.1,2.5 -5.86,1.762 -11.25,4.614 -16.25,8.602 -5,3.941 -9.18,9.101 -12.5,15.461 -3.24,6.328 -4.84,14.109 -4.84,23.289 v 48.121 c 0,9.141 1.6,16.918 4.84,23.277 3.32,6.332 7.5,11.492 12.5,15.473 5,3.949 10.39,6.758 16.25,8.437 5.82,1.762 11.17,2.653 16.1,2.653 h 64.06 c 9.14,0 16.91,-1.68 23.28,-5 6.33,-3.242 11.48,-7.34 15.47,-12.34 3.94,-4.922 6.8,-10.27 8.59,-16.09 1.76,-5.859 2.66,-11.332 2.66,-16.41 z m -35.63,47.961 c 0,4.89 -1.25,8.48 -3.75,10.789 -2.42,2.379 -5.93,3.59 -10.62,3.59 h -63.75 c -4.81,0 -8.44,-1.211 -10.94,-3.59 -2.42,-2.43 -3.59,-5.942 -3.59,-10.629 V 296.84 c 0,-4.61 1.17,-8.129 3.59,-10.629 2.5,-2.422 6.13,-3.59 10.94,-3.59 h 63.75 c 4.88,0 8.48,1.168 10.78,3.59 2.38,2.5 3.59,6.019 3.59,10.629 z m -57.81,92.039 c 0,-2.5 -0.55,-4.852 -1.56,-7.039 -0.94,-2.102 -2.19,-3.981 -3.75,-5.621 -1.56,-1.559 -3.44,-2.809 -5.63,-3.75 -2.18,-0.86 -4.45,-1.25 -6.71,-1.25 -2.5,0 -4.85,0.39 -7.04,1.25 -2.11,0.941 -3.98,2.191 -5.62,3.75 -1.56,1.64 -2.81,3.519 -3.75,5.621 -0.86,2.187 -1.25,4.539 -1.25,7.039 0,2.262 0.39,4.531 1.25,6.711 0.94,2.187 2.19,4.07 3.75,5.629 1.64,1.558 3.51,2.808 5.62,3.75 2.19,1.019 4.54,1.558 7.04,1.558 2.26,0 4.53,-0.539 6.71,-1.558 2.19,-0.942 4.07,-2.192 5.63,-3.75 1.56,-1.559 2.81,-3.442 3.75,-5.629 1.01,-2.18 1.56,-4.449 1.56,-6.711 z m 63.28,0 c 0,-2.5 -0.54,-4.852 -1.56,-7.039 -0.94,-2.102 -2.19,-3.981 -3.75,-5.621 -1.56,-1.559 -3.44,-2.809 -5.62,-3.75 -2.11,-0.86 -4.34,-1.25 -6.72,-1.25 -2.5,0 -4.85,0.39 -7.03,1.25 -2.11,0.941 -3.99,2.191 -5.63,3.75 -1.56,1.64 -2.81,3.519 -3.75,5.621 -0.86,2.187 -1.25,4.539 -1.25,7.039 0,2.262 0.39,4.531 1.25,6.711 0.94,2.187 2.19,4.07 3.75,5.629 1.64,1.558 3.52,2.808 5.63,3.75 2.18,1.019 4.53,1.558 7.03,1.558 2.38,0 4.61,-0.539 6.72,-1.558 2.18,-0.942 4.06,-2.192 5.62,-3.75 1.56,-1.559 2.81,-3.442 3.75,-5.629 1.02,-2.18 1.56,-4.449 1.56,-6.711 z" /><path
         id="path38"
         style="fill:#318f41;fill-opacity:1;fill-rule:nonzero;stroke:none"
         d="m 1892.15,296.84 c 0,-6.059 -0.78,-11.531 -2.35,-16.41 -1.56,-4.918 -3.67,-9.219 -6.25,-12.969 -2.5,-3.672 -5.46,-6.801 -8.9,-9.371 -3.36,-2.621 -6.88,-4.77 -10.63,-6.41 -3.67,-1.559 -7.34,-2.77 -11.09,-3.59 -3.75,-0.75 -7.34,-1.102 -10.78,-1.102 h -64.06 c -4.93,0 -10.28,0.821 -16.1,2.5 -5.86,1.762 -11.25,4.614 -16.25,8.602 -5,3.941 -9.18,9.101 -12.5,15.461 -3.24,6.328 -4.84,14.109 -4.84,23.289 v 48.121 c 0,9.141 1.6,16.918 4.84,23.277 3.32,6.332 7.5,11.492 12.5,15.473 5,3.949 10.39,6.758 16.25,8.437 5.82,1.762 11.17,2.653 16.1,2.653 h 64.06 c 9.14,0 16.91,-1.68 23.28,-5 6.33,-3.242 11.48,-7.34 15.47,-12.34 3.94,-4.922 6.8,-10.27 8.59,-16.09 1.76,-5.859 2.66,-11.332 2.66,-16.41 z m -35.63,47.961 c 0,4.89 -1.25,8.48 -3.75,10.789 -2.42,2.379 -5.93,3.59 -10.62,3.59 h -63.75 c -4.81,0 -8.44,-1.211 -10.94,-3.59 -2.42,-2.43 -3.59,-5.942 -3.59,-10.629 V 296.84 c 0,-4.61 1.17,-8.129 3.59,-10.629 2.5,-2.422 6.13,-3.59 10.94,-3.59 h 63.75 c 4.88,0 8.47,1.168 10.78,3.59 2.38,2.5 3.59,6.019 3.59,10.629 z m -57.81,92.039 c 0,-2.5 -0.55,-4.852 -1.56,-7.039 -0.94,-2.102 -2.19,-3.981 -3.75,-5.621 -1.56,-1.559 -3.44,-2.809 -5.63,-3.75 -2.18,-0.86 -4.45,-1.25 -6.72,-1.25 -2.5,0 -4.84,0.39 -7.03,1.25 -2.11,0.941 -3.98,2.191 -5.62,3.75 -1.56,1.64 -2.81,3.519 -3.75,5.621 -0.86,2.187 -1.25,4.539 -1.25,7.039 0,2.262 0.39,4.531 1.25,6.711 0.94,2.187 2.19,4.07 3.75,5.629 1.64,1.558 3.51,2.808 5.62,3.75 2.19,1.019 4.53,1.558 7.03,1.558 2.27,0 4.54,-0.539 6.72,-1.558 2.19,-0.942 4.07,-2.192 5.63,-3.75 1.56,-1.559 2.81,-3.442 3.75,-5.629 1.01,-2.18 1.56,-4.449 1.56,-6.711 z m 63.28,0 c 0,-2.5 -0.54,-4.852 -1.56,-7.039 -0.94,-2.102 -2.19,-3.981 -3.75,-5.621 -1.56,-1.559 -3.44,-2.809 -5.63,-3.75 -2.1,-0.86 -4.33,-1.25 -6.71,-1.25 -2.5,0 -4.85,0.39 -7.04,1.25 -2.1,0.941 -3.98,2.191 -5.62,3.75 -1.56,1.64 -2.81,3.519 -3.75,5.621 -0.86,2.187 -1.25,4.539 -1.25,7.039 0,2.262 0.39,4.531 1.25,6.711 0.94,2.187 2.19,4.07 3.75,5.629 1.64,1.558 3.52,2.808 5.62,3.75 2.19,1.019 4.54,1.558 7.04,1.558 2.38,0 4.61,-0.539 6.71,-1.558 2.19,-0.942 4.07,-2.192 5.63,-3.75 1.56,-1.559 2.81,-3.442 3.75,-5.629 1.02,-2.18 1.56,-4.449 1.56,-6.711 z" /><path
         id="path40"
         style="fill:#318f41;fill-opacity:1;fill-rule:nonzero;stroke:none"
         d="m 2051.6,359.18 h -80 c -4.92,0 -8.59,-1.211 -11.09,-3.59 -2.42,-2.43 -3.6,-5.942 -3.6,-10.629 v -97.973 h -35.46 v 97.973 c 0,6.129 0.7,11.598 2.18,16.41 1.57,4.879 3.64,9.141 6.25,12.809 2.58,3.75 5.55,6.91 8.91,9.531 3.44,2.578 6.95,4.687 10.62,6.25 3.75,1.641 7.5,2.848 11.25,3.59 3.75,0.828 7.27,1.25 10.63,1.25 h 80.31 z" /></g></g></svg>